<?xml version="1.0" encoding="utf-8"?>
<!-- Generator: Adobe Illustrator 21.0.0, SVG Export Plug-In . SVG Version: 6.00 Build 0)  -->
<svg version="1.1" id="Layer_1" xmlns="http://www.w3.org/2000/svg" xmlns:xlink="http://www.w3.org/1999/xlink" x="0px" y="0px"
	 viewBox="0 0 512 512" style="enable-background:new 0 0 512 512;" xml:space="preserve">
<path style="fill:#FFFFFF;stroke:#102341;stroke-width:35;stroke-miterlimit:10;" d="M480.3,492H31.7c-6.5,0-11.7-5.3-11.7-11.7
	V31.7C20,25.3,25.3,20,31.7,20h448.5c6.5,0,11.7,5.3,11.7,11.7v448.5C492,486.7,486.7,492,480.3,492z"/>
<g id="Layer_2">
	<g>
		<path style="fill:#102341;stroke:#102341;stroke-miterlimit:10;" d="M323.8,305.2H406c-17.5,66.5-72.6,107.1-145.6,107.1
			c-90.5,0-154.4-64.3-154.4-156.1S169.8,99.7,260.4,99.7c73,0,128.1,41.1,145.6,107.6h-82.2c-12.7-26.2-35.9-39.4-64.3-39.4
			c-45.9,0-77.4,34.1-77.4,88.3s31.5,88.3,77.4,88.3C287.9,344.6,311.1,331.4,323.8,305.2z"/>
	</g>
</g>
</svg>
