<?xml version="1.0" encoding="utf-8"?>
<!-- Generator: Adobe Illustrator 21.0.0, SVG Export Plug-In . SVG Version: 6.00 Build 0)  -->
<svg version="1.1" id="Layer_1" xmlns="http://www.w3.org/2000/svg" xmlns:xlink="http://www.w3.org/1999/xlink" x="0px" y="0px"
	 viewBox="0 0 512 512" style="enable-background:new 0 0 512 512;" xml:space="preserve">
<g>
	<g>
		<path style="fill:#102341;" d="M256,135L74.1,284.9c0,0.2-0.1,0.5-0.2,0.9c-0.1,0.4-0.2,0.7-0.2,0.9v151.8c0,5.5,2,10.2,6,14.2
			c4,4,8.8,6,14.2,6h121.5V337.5h81v121.5H418c5.5,0,10.2-2,14.2-6c4-4,6-8.8,6-14.2V286.8c0-0.8-0.1-1.5-0.3-1.9L256,135z"/>
		<path style="fill:#102341;" d="M507.5,250.8l-69.3-57.6V64.1c0-3-0.9-5.4-2.9-7.3c-1.9-1.9-4.3-2.8-7.3-2.8h-60.7
			c-3,0-5.4,0.9-7.3,2.8c-1.9,1.9-2.8,4.3-2.8,7.3v61.7L280,61.3c-6.7-5.5-14.8-8.2-24-8.2c-9.3,0-17.3,2.7-24,8.2L4.5,250.8
			c-2.1,1.7-3.3,4-3.5,6.8c-0.2,2.8,0.5,5.3,2.2,7.4l19.6,23.4c1.7,1.9,3.9,3.1,6.6,3.5c2.5,0.2,5.1-0.5,7.6-2.2L256,107.2
			l218.9,182.5c1.7,1.5,3.9,2.2,6.6,2.2h1c2.7-0.4,4.9-1.6,6.6-3.5l19.6-23.4c1.7-2.1,2.4-4.6,2.2-7.4
			C510.7,254.7,509.6,252.5,507.5,250.8z"/>
	</g>
</g>
</svg>
