<?xml version="1.0" encoding="utf-8"?>
<!-- Generator: Adobe Illustrator 21.0.0, SVG Export Plug-In . SVG Version: 6.00 Build 0)  -->
<svg version="1.1" id="Layer_1" xmlns="http://www.w3.org/2000/svg" xmlns:xlink="http://www.w3.org/1999/xlink" x="0px" y="0px"
	 viewBox="0 0 512 512" style="enable-background:new 0 0 512 512;" xml:space="preserve">
<g>
	<path style="fill:#102341;" d="M361.9,456l-7.1,29.1c-21.4,8.4-38.5,14.9-51.2,19.3c-12.7,4.4-27.5,6.6-44.4,6.6
		c-25.9,0-46-6.3-60.4-18.9c-14.4-12.6-21.5-28.7-21.5-48.1c0-7.5,0.5-15.3,1.6-23.1c1.1-7.9,2.8-16.8,5.2-26.7l26.7-94.6
		c2.4-9.1,4.4-17.6,6-25.7c1.6-8.1,2.4-15.5,2.4-22.2c0-12.1-2.5-20.5-7.5-25.3c-5-4.7-14.5-7.1-28.6-7.1c-6.9,0-14,1.1-21.2,3.2
		c-7.3,2.1-13.5,4.2-18.7,6.2l7.1-29.2c17.5-7.1,34.2-13.2,50.2-18.3c16-5.1,31.1-7.6,45.4-7.6c25.7,0,45.5,6.2,59.5,18.6
		c13.9,12.4,20.9,28.5,20.9,48.4c0,4.1-0.5,11.3-1.4,21.7c-1,10.4-2.7,19.9-5.4,28.5L293.1,385c-2.2,7.6-4.1,16.2-5.8,25.9
		c-1.8,9.7-2.6,17.1-2.6,22c0,12.5,2.8,21,8.4,25.6c5.6,4.5,15.3,6.8,29.1,6.8c6.5,0,13.8-1.1,22-3.4
		C352.3,459.7,358.2,457.7,361.9,456z M368.7,60.6c0,16.4-6.2,30.4-18.6,41.9c-12.4,11.6-27.3,17.4-44.8,17.4
		c-17.5,0-32.5-5.8-45-17.4C247.7,91,241.4,77,241.4,60.6c0-16.4,6.3-30.4,18.8-42.1C272.7,6.8,287.7,1,305.2,1
		c17.5,0,32.4,5.8,44.8,17.5C362.5,30.1,368.7,44.2,368.7,60.6z"/>
</g>
</svg>
