<?xml version="1.0" encoding="utf-8"?>
<!-- Generator: Adobe Illustrator 21.0.0, SVG Export Plug-In . SVG Version: 6.00 Build 0)  -->
<svg version="1.1" id="Layer_1" xmlns="http://www.w3.org/2000/svg" xmlns:xlink="http://www.w3.org/1999/xlink" x="0px" y="0px"
	 viewBox="0 0 50 50" style="enable-background:new 0 0 50 50;" xml:space="preserve" height="50px" width = "50px">
<style type="text/css">
	.st0{fill:#1f3250;}
	.st1{fill:none;stroke:#1f3250;stroke-width:3;stroke-miterlimit:10;}
</style>
<g>
	<path class="st0" d="M25,15c-5.5,0-10,4.5-10,10s4.5,10,10,10s10-4.5,10-10S30.5,15,25,15z M28.5,25.5l-5,3.1
		c-0.1,0.1-0.2,0.1-0.3,0.1c-0.1,0-0.2,0-0.3-0.1c-0.2-0.1-0.3-0.3-0.3-0.5v-6.3c0-0.2,0.1-0.4,0.3-0.5c0.2-0.1,0.4-0.1,0.6,0l5,3.1
		c0.2,0.1,0.3,0.3,0.3,0.5S28.6,25.4,28.5,25.5z"/>
	<path class="st1" d="M37.8,41H12.2c-6.5,0-10.8,0.6-10.8-5.9V14.9C1.4,8.4,5.8,9,12.2,9h25.5c6.5,0,10.8-0.6,10.8,5.9v20.3
		C48.6,41.6,44.2,41,37.8,41z"/>
</g>
</svg>
