<?xml version="1.0" encoding="utf-8"?>
<!-- Generator: Adobe Illustrator 21.0.0, SVG Export Plug-In . SVG Version: 6.00 Build 0)  -->
<svg version="1.1" id="Layer_1" xmlns="http://www.w3.org/2000/svg" xmlns:xlink="http://www.w3.org/1999/xlink" x="0px" y="0px"
	 viewBox="0 0 512 512" style="enable-background:new 0 0 512 512;" xml:space="preserve">
<g>
	<g>
		<path style="fill:#102341;" d="M474.6,129.3c-22.6-38.7-53.2-69.3-91.9-91.9C344.1,14.8,301.8,3.5,256,3.5
			c-45.8,0-88.1,11.3-126.7,33.9c-38.7,22.6-69.3,53.2-91.9,91.9C14.8,167.9,3.5,210.2,3.5,256c0,45.8,11.3,88.1,33.9,126.7
			c22.6,38.7,53.2,69.3,91.9,91.9c38.7,22.6,80.9,33.9,126.7,33.9s88.1-11.3,126.7-33.9c38.7-22.6,69.3-53.2,91.9-91.9
			c22.6-38.7,33.9-80.9,33.9-126.7C508.5,210.2,497.2,167.9,474.6,129.3z M410.9,345.8c-16,27.4-37.7,49.1-65.1,65.1
			c-27.4,16-57.3,24-89.8,24c-32.4,0-62.4-8-89.8-24c-27.4-16-49.1-37.7-65.1-65.1c-16-27.4-24-57.3-24-89.8c0-32.4,8-62.4,24-89.8
			c16-27.4,37.7-49.1,65.1-65.1c27.4-16,57.3-24,89.8-24c32.4,0,62.4,8,89.8,24c27.4,16,49.1,37.7,65.1,65.1
			c16,27.4,24,57.3,24,89.8C434.9,288.4,426.9,318.4,410.9,345.8z"/>
		<path style="fill:#102341;" d="M287.6,129.7h-21c-3.1,0-5.6,1-7.6,3c-2,2-3,4.5-3,7.6V256h-73.6c-3.1,0-5.6,1-7.6,3
			c-2,2-3,4.5-3,7.6v21c0,3.1,1,5.6,3,7.6c2,2,4.5,3,7.6,3h105.2c3.1,0,5.6-1,7.6-3c2-2,3-4.5,3-7.6V140.3c0-3.1-1-5.6-3-7.6
			C293.2,130.7,290.6,129.7,287.6,129.7z"/>
	</g>
</g>
</svg>
