<?xml version="1.0" encoding="utf-8"?>
<!-- Generator: Adobe Illustrator 21.0.0, SVG Export Plug-In . SVG Version: 6.00 Build 0)  -->
<svg version="1.1" id="Layer_1" xmlns="http://www.w3.org/2000/svg" xmlns:xlink="http://www.w3.org/1999/xlink" x="0px" y="0px"
	 viewBox="0 0 512 512" style="enable-background:new 0 0 512 512;" xml:space="preserve">
<g>
	<g id="lock">
		<path style="fill:#102341;" d="M401.7,171h-24.3v-48.6C377.4,54.4,324,1,256,1S134.6,54.4,134.6,122.4V171h-24.3
			c-26.7,0-48.6,21.9-48.6,48.6v242.9c0,26.7,21.9,48.6,48.6,48.6h291.4c26.7,0,48.6-21.9,48.6-48.6V219.6
			C450.3,192.9,428.4,171,401.7,171z M256,389.6c-26.7,0-48.6-21.9-48.6-48.6s21.9-48.6,48.6-48.6c26.7,0,48.6,21.9,48.6,48.6
			S282.7,389.6,256,389.6z M331.3,171H180.7v-48.6c0-41.3,34-75.3,75.3-75.3s75.3,34,75.3,75.3V171z"/>
	</g>
</g>
</svg>
