<?xml version="1.0" encoding="utf-8"?>
<!-- Generator: Adobe Illustrator 21.0.0, SVG Export Plug-In . SVG Version: 6.00 Build 0)  -->
<svg version="1.1" id="Layer_1" xmlns="http://www.w3.org/2000/svg" xmlns:xlink="http://www.w3.org/1999/xlink" x="0px" y="0px"
	 viewBox="0 0 512 512" style="enable-background:new 0 0 512 512;" xml:space="preserve">
<g>
	<path style="fill:#102341;stroke:#102341;stroke-width:15;stroke-miterlimit:10;" d="M151,469C43.3,434.4-16.2,318.7,18.3,211
		s150.3-167.2,258-132.7c37.5,12,70.4,34.3,95.4,64.7c4.9,6,4.1,14.8-1.9,19.7c-6,5-14.8,4.1-19.7-1.9
		c-21.5-26.2-50.1-45.4-82.4-55.8C174.7,75.1,74.7,126.5,45,219.5c-29.9,93,21.5,192.9,114.6,222.8c93,29.9,192.9-21.6,222.8-114.6
		c1.8-5.6,3.3-11.1,4.5-16.8c1.7-7.5,9.1-12.3,16.7-10.7c7.5,1.7,12.3,9.1,10.7,16.7c-1.4,6.4-3.2,12.9-5.2,19.3
		C374.4,444,258.6,503.5,151,469z"/>
	<path style="fill:#102341;stroke:#102341;stroke-width:15;stroke-miterlimit:10;" d="M219.2,334.1c-4.1,0-8-1.5-11.1-4.7L113.5,235
		c-6.1-6.1-6.1-16.2,0-22.3c6.1-6.1,16.2-6.1,22.3,0l83.4,83.4L476.6,37.8c6.1-6.1,16.2-6.1,22.3,0c6.1,6.1,6.1,16.2,0,22.3
		L230.4,329.5C227.3,332.6,223.2,334.1,219.2,334.1z"/>
</g>
</svg>
