<?xml version="1.0" encoding="utf-8"?>
<!-- Generator: Adobe Illustrator 21.0.0, SVG Export Plug-In . SVG Version: 6.00 Build 0)  -->
<svg version="1.1" id="Layer_1" xmlns="http://www.w3.org/2000/svg" xmlns:xlink="http://www.w3.org/1999/xlink" x="0px" y="0px"
	 viewBox="0 0 512 512" style="enable-background:new 0 0 512 512;" xml:space="preserve">
<path style="fill:#102341;" d="M510.6,80.6c0-21.3-8.3-41.3-23.4-56.4c-31.1-31-81.7-31-112.7,0.1L53.5,346.6
	C43,357,35.1,369.9,30.4,384l-0.3,0.9L1.4,511l126.5-28.3l0.9-0.3c14-4.6,26.9-12.6,37.4-23.1l321-322.3
	C502.3,122,510.6,101.9,510.6,80.6z M71.6,454.5l-13.4-13.4l9.7-42.6l46.4,46.5L71.6,454.5z M459.1,108.9L147.4,421.8L91,365.3
	L304.5,151l32.5,32.5l28.2-28.2l-32.6-32.6l30.3-30.4l32.6,32.6l28.2-28.2l-32.7-32.7l11.7-11.7c15.5-15.6,40.9-15.6,56.4-0.1
	c7.5,7.5,11.7,17.6,11.7,28.2C470.8,91.3,466.6,101.3,459.1,108.9z M210.9,470.8h299.7v39.8H171.2L210.9,470.8z"/>
</svg>
