<?xml version="1.0" encoding="utf-8"?>
<!-- Generator: Adobe Illustrator 21.0.0, SVG Export Plug-In . SVG Version: 6.00 Build 0)  -->
<svg version="1.1" id="Layer_1" xmlns="http://www.w3.org/2000/svg" xmlns:xlink="http://www.w3.org/1999/xlink" x="0px" y="0px"
	 viewBox="0 0 512 512" style="enable-background:new 0 0 512 512;" xml:space="preserve">
<style type="text/css">
	.st0{fill:#102341;}
</style>
<g>
	<g>
		<g>
			<g>
				<g>
					<path class="st0" d="M0,256.1h20H0c0,7.8,0.4,15.7,1.1,23.5l39.8-3.6c-0.6-6.6-0.9-13.3-0.9-19.9c0-119.1,96.9-216,216-216
						c55.9,0,109.4,21.9,149.3,60H332v40h140V0.1h-40v70.2c-17.2-16.3-36.6-30.2-57.5-41.2c-36.3-19-77.3-29-118.5-29
						c-68.4,0-132.6,26.6-181,75S0,187.8,0,256.1z"/>
					<path class="st0" d="M0,256.1L0,256.1L0,256.1z"/>
				</g>
			</g>
		</g>
		<g>
			<g>
				<path class="st0" d="M399,418l26.5,30c10.8-9.5,20.9-20.1,29.9-31.3l-31.1-25.1C416.6,401,408.1,409.9,399,418z"/>
			</g>
		</g>
		<g>
			<g>
				<path class="st0" d="M444.8,361.2l34.9,19.5c7-12.6,13-25.9,17.8-39.5l-37.7-13.3C455.7,339.4,450.7,350.6,444.8,361.2z"/>
			</g>
		</g>
		<g>
			<g>
				<path class="st0" d="M469,292.5l39.4,6.7c2.4-14.1,3.6-28.6,3.6-43.1h-40C472,268.4,471,280.6,469,292.5z"/>
			</g>
		</g>
		<g>
			<g>
				<path class="st0" d="M337.2,456.3l15,37.1c13.3-5.4,26.3-12,38.6-19.6l-21.1-34C359.3,446.3,348.4,451.8,337.2,456.3z"/>
			</g>
		</g>
		<g>
			<g>
				<path class="st0" d="M8.7,322.3c3.7,14,8.7,27.7,14.7,40.8l36.3-16.7c-5.1-11.1-9.3-22.7-12.4-34.4L8.7,322.3z"/>
			</g>
		</g>
		<g>
			<g>
				<path class="st0" d="M104.7,462.7c11.7,8.6,24.1,16.2,37,22.6l17.9-35.8c-10.9-5.4-21.4-11.8-31.2-19L104.7,462.7z"/>
			</g>
		</g>
		<g>
			<g>
				<path class="st0" d="M44.8,400.7c8.1,11.9,17.4,23.1,27.4,33.5l28.7-27.8c-8.5-8.7-16.3-18.3-23.2-28.3L44.8,400.7z"/>
			</g>
		</g>
		<g>
			<g>
				<path class="st0" d="M182.1,501.3c13.8,4.1,28.1,7.1,42.4,8.9l4.9-39.7c-12.1-1.5-24.2-4-35.8-7.5L182.1,501.3z"/>
			</g>
		</g>
		<g>
			<g>
				<path class="st0" d="M265.9,471.9l1.8,40c14.5-0.7,28.9-2.5,43-5.6l-8.5-39.1C290.4,469.8,278.2,471.4,265.9,471.9z"/>
			</g>
		</g>
	</g>
	<g id="Play">
		<path class="st0" d="M343.7,239.6l-154.5-97.3c-4.6-2.7-10.2-2.3-14.5-2.3c-17.1,0-17.1,13.2-17.1,16.6v198.9
			c0,2.8-0.1,16.6,17.1,16.6c4.3,0,10,0.5,14.5-2.3l154.5-97.3c12.7-7.5,10.5-16.4,10.5-16.4S356.4,247.1,343.7,239.6z"/>
	</g>
</g>
</svg>
