<?xml version="1.0" encoding="utf-8"?>
<!-- Generator: Adobe Illustrator 21.0.0, SVG Export Plug-In . SVG Version: 6.00 Build 0)  -->
<svg version="1.1" id="Layer_1" xmlns="http://www.w3.org/2000/svg" xmlns:xlink="http://www.w3.org/1999/xlink" x="0px" y="0px"
	 viewBox="0 0 512 512" style="enable-background:new 0 0 512 512;" xml:space="preserve">
<g>
	<g>
		<path style="fill:#102341;" d="M490.6,123.2c-13.3-13.3-29.2-19.9-48-19.9h-59.4l-13.5-36.1c-3.4-8.7-9.5-16.1-18.4-22.4
			c-8.9-6.3-18.1-9.4-27.4-9.4H188.1c-9.4,0-18.5,3.1-27.4,9.4c-8.9,6.3-15.1,13.7-18.4,22.4l-13.5,36.1H69.4
			c-18.7,0-34.7,6.6-48,19.9c-13.3,13.3-19.9,29.2-19.9,48v237.5c0,18.7,6.6,34.7,19.9,48c13.3,13.3,29.2,19.9,48,19.9h373.3
			c18.7,0,34.7-6.6,48-19.9c13.3-13.3,19.9-29.2,19.9-48V171.2C510.5,152.4,503.9,136.4,490.6,123.2z M339.9,373.8
			c-23.2,23.2-51.2,34.9-83.9,34.9s-60.7-11.6-83.9-34.9c-23.2-23.2-34.9-51.2-34.9-83.9c0-32.7,11.6-60.7,34.9-83.9
			c23.2-23.2,51.2-34.9,83.9-34.9c32.7,0,60.7,11.6,83.9,34.9c23.2,23.2,34.9,51.2,34.9,83.9C374.8,322.6,363.1,350.6,339.9,373.8z"
			/>
		<path style="fill:#102341;" d="M256,213.6c-21,0-39,7.5-54,22.4c-14.9,14.9-22.4,32.9-22.4,54c0,21,7.5,39,22.4,53.9
			c14.9,14.9,32.9,22.4,54,22.4c21,0,39-7.5,53.9-22.4c14.9-14.9,22.4-32.9,22.4-53.9c0-21-7.5-39-22.4-54
			C295,221.1,277,213.6,256,213.6z"/>
	</g>
</g>
</svg>
