<?xml version="1.0" encoding="utf-8"?>
<!-- Generator: Adobe Illustrator 21.0.0, SVG Export Plug-In . SVG Version: 6.00 Build 0)  -->
<svg version="1.1" id="Layer_1" xmlns="http://www.w3.org/2000/svg" xmlns:xlink="http://www.w3.org/1999/xlink" x="0px" y="0px"
	 viewBox="0 0 512 512" style="enable-background:new 0 0 512 512;" xml:space="preserve">
<g>
	<path style="fill:#102341;" d="M256,1.5C152.7,1.5,68.6,85.6,68.6,188.9c0,27,5.5,52.7,16.4,76.5
		c46.9,102.5,136.7,210.8,163.1,241.5c2,2.3,4.9,3.6,7.9,3.6s5.9-1.3,7.9-3.6c26.4-30.7,116.2-139,163.1-241.5
		c10.9-23.8,16.4-49.5,16.4-76.5C443.4,85.6,359.3,1.5,256,1.5z M256,286.2c-53.7,0-97.3-43.7-97.3-97.3c0-53.7,43.7-97.3,97.3-97.3
		s97.3,43.7,97.3,97.3C353.3,242.6,309.7,286.2,256,286.2z"/>
</g>
</svg>
