<?xml version="1.0" encoding="utf-8"?>
<!-- Generator: Adobe Illustrator 21.0.0, SVG Export Plug-In . SVG Version: 6.00 Build 0)  -->
<svg version="1.1" id="Layer_1" xmlns="http://www.w3.org/2000/svg" xmlns:xlink="http://www.w3.org/1999/xlink" x="0px" y="0px"
	 viewBox="0 0 512 512" style="enable-background:new 0 0 512 512;" xml:space="preserve">
<g>
	<g>
		<g>
			<g>
				<path style="fill:#102341;" d="M437,75.1c-48.4-48.4-112.6-75-181-75c-41.2,0-82.2,10-118.5,29C116.6,40.1,97.2,54,80,70.3V0.1
					H40v140h140v-40h-73.3c39.9-38.1,93.4-60,149.3-60c119.1,0,216,96.9,216,216c0,6.6-0.3,13.3-0.9,19.9l39.8,3.6
					c0.7-7.8,1.1-15.7,1.1-23.5l-20,0h20C512,187.8,485.4,123.5,437,75.1z"/>
				<polygon style="fill:#102341;" points="512,256.1 512,256.1 512,256.1 				"/>
			</g>
		</g>
	</g>
	<g>
		<g>
			<path style="fill:#102341;" d="M87.7,391.6l-31.1,25.1c9,11.2,19.1,21.8,29.9,31.3l26.5-30C103.9,409.9,95.4,401,87.7,391.6z"/>
		</g>
	</g>
	<g>
		<g>
			<path style="fill:#102341;" d="M52.2,327.9l-37.7,13.3c4.8,13.6,10.8,26.9,17.8,39.5l34.9-19.5C61.3,350.6,56.3,339.4,52.2,327.9
				z"/>
		</g>
	</g>
	<g>
		<g>
			<path style="fill:#102341;" d="M40,256.1H0c0,14.5,1.2,29,3.6,43.1l39.4-6.7C41,280.6,40,268.4,40,256.1z"/>
		</g>
	</g>
	<g>
		<g>
			<path style="fill:#102341;" d="M142.3,439.8l-21.1,34c12.3,7.6,25.3,14.2,38.6,19.6l15-37.1C163.6,451.8,152.7,446.3,142.3,439.8
				z"/>
		</g>
	</g>
	<g>
		<g>
			<path style="fill:#102341;" d="M464.7,312c-3.1,11.7-7.3,23.3-12.4,34.4l36.3,16.7c6-13.1,11-26.8,14.7-40.8L464.7,312z"/>
		</g>
	</g>
	<g>
		<g>
			<path style="fill:#102341;" d="M383.6,430.5c-9.8,7.2-20.3,13.6-31.2,19l17.9,35.8c12.9-6.4,25.3-14,37-22.6L383.6,430.5z"/>
		</g>
	</g>
	<g>
		<g>
			<path style="fill:#102341;" d="M434.3,378.1c-6.9,10-14.7,19.6-23.2,28.3l28.7,27.8c10-10.4,19.3-21.6,27.4-33.5L434.3,378.1z"/>
		</g>
	</g>
	<g>
		<g>
			<path style="fill:#102341;" d="M318.4,463c-11.6,3.5-23.7,6-35.8,7.5l4.9,39.7c14.3-1.8,28.6-4.8,42.4-8.9L318.4,463z"/>
		</g>
	</g>
	<g>
		<g>
			<path style="fill:#102341;" d="M209.8,467.2l-8.5,39.1c14.1,3.1,28.5,4.9,43,5.6l1.8-40C233.8,471.4,221.6,469.8,209.8,467.2z"/>
		</g>
	</g>
</g>
</svg>
