<?xml version="1.0" encoding="utf-8"?>
<!-- Generator: Adobe Illustrator 21.0.0, SVG Export Plug-In . SVG Version: 6.00 Build 0)  -->
<svg version="1.1" id="Layer_1" xmlns="http://www.w3.org/2000/svg" xmlns:xlink="http://www.w3.org/1999/xlink" x="0px" y="0px"
	 viewBox="0 0 512 512" style="enable-background:new 0 0 512 512;" xml:space="preserve">
<g>
	<path style="fill:#102341;" d="M1,74.8v71.9c0,18.6,71,45.5,182.1,45.5s182.1-27,182.1-45.5V74.8c-33.5,23.4-108.1,35.5-182.1,35.5
		S34.5,98.2,1,74.8z"/>
	<path style="fill:#102341;" d="M365.3,46.5C365.3,21.4,283.7,1,183.1,1S1,21.4,1,46.5s81.5,45.5,182.1,45.5S365.3,71.7,365.3,46.5z
		"/>
	<path style="fill:#102341;" d="M392.6,418.2l6.3-2c4.6-1.4,9-3.3,13.2-5.5l6-3.3l27.2,27.2l25.7-25.7l-27.2-27.1l3.3-6
		c2.3-4.2,4.1-8.6,5.5-13.2l2-6.3h38.1v-36.4h-38.1l-2-6.3c-1.4-4.6-3.3-9-5.5-13.2l-3.3-6l27.2-27.2l-25.7-25.7l-27.1,27.2l-6-3.3
		c-4.2-2.3-8.6-4.1-13.2-5.5l-6.3-2v-38.1h-36.4v38.1l-6.3,2c-4.6,1.4-9,3.3-13.2,5.5l-6,3.3l-27.2-27.2l-25.7,25.7l27.1,27.1
		l-3.3,6c-2.3,4.2-4.1,8.6-5.5,13.2l-2,6.3H256v36.4h38.1l2,6.3c1.4,4.6,3.3,9,5.5,13.2l3.3,6l-27.1,27.2l25.7,25.7l27.1-27.2l6,3.3
		c4.2,2.3,8.6,4.1,13.2,5.5l6.3,2v38.1h36.4L392.6,418.2z M328.9,338c0-25.1,20.4-45.5,45.5-45.5s45.5,20.4,45.5,45.5
		c0,25.1-20.4,45.5-45.5,45.5C349.3,383.5,328.9,363.1,328.9,338z"/>
	<path style="fill:#102341;" d="M338,431.3c-1.3-0.5-2.6-1-3.8-1.6l-30.6,30.6L252,408.8l30.6-30.6c-0.5-1.2-1.1-2.5-1.6-3.8h-43.3
		v-72.9h43.3c0.5-1.3,1-2.6,1.6-3.8L252,267.1l51.5-51.5l30.6,30.6c1.2-0.5,2.5-1.1,3.8-1.6v-43.3h27.3v-26.4
		c-33.5,23.4-108.1,35.5-182.1,35.5S34.5,198.4,1,174.9V256c0,18.6,71,45.5,182.1,45.5c12.1,0,24.2-0.3,36.1-1l1,18.2
		c-12.2,0.6-24.6,1-37.1,1c-74,0-148.7-12.1-182.1-35.5v81.1c0,18.6,71,45.5,182.1,45.5c18.2,0,36.4-0.8,53.9-2.2l1.5,18.2
		c-18,1.5-36.6,2.3-55.4,2.3c-74,0-148.7-12.1-182.1-35.5v71.9C1,484,72,511,183.1,511c94,0,159-19.3,177-36.4H338V431.3z"/>
	<path style="fill:#102341;" d="M401.7,338c0,15.1-12.2,27.3-27.3,27.3c-15.1,0-27.3-12.2-27.3-27.3c0-15.1,12.2-27.3,27.3-27.3
		C389.5,310.6,401.7,322.9,401.7,338z"/>
	<path style="fill:#102341;" d="M511,146.7v-18.2h-19.5c-0.8-3.3-2.1-6.4-3.9-9.3l13.8-13.8l-12.9-12.9l-13.8,13.8
		c-2.9-1.7-6-3-9.3-3.9V83h-18.2v19.5c-3.3,0.8-6.4,2.1-9.3,3.9l-13.8-13.8l-12.9,12.9l13.8,13.8c-1.7,2.9-3,6-3.9,9.3h-19.5v18.2
		h19.5c0.8,3.3,2.1,6.4,3.9,9.3l-13.8,13.8l12.9,12.9l13.8-13.8c2.9,1.7,6,3,9.3,3.9v19.5h18.2v-19.5c3.3-0.8,6.4-2.1,9.3-3.9
		l13.8,13.8l12.9-12.9L487.6,156c1.7-2.9,3-6,3.9-9.3H511z"/>
</g>
</svg>
