<?xml version="1.0" encoding="iso-8859-1"?>
<!-- Generator: Adobe Illustrator 19.0.0, SVG Export Plug-In . SVG Version: 6.00 Build 0)  -->
<svg xmlns="http://www.w3.org/2000/svg" xmlns:xlink="http://www.w3.org/1999/xlink" version="1.1" id="Layer_1" x="0px" y="0px" viewBox="0 0 512.001 512.001" style="enable-background:new 0 0 612 612;" xml:space="preserve" width="70px" height="auto" fill="black">
<g>
	<g>
		<path d="M480.174,63.857H31.843C14.285,63.857,0,78.143,0,95.7v320.6c0,17.558,14.285,31.843,31.843,31.843h448.314    c17.184,0,31.228-13.696,31.808-30.749c0.023-0.361,0.035-0.728,0.035-1.094V95.7C512.001,78.142,497.724,63.857,480.174,63.857z     M478.968,415.111H33.032V96.89h445.936V415.111z" fill="black"/>
	</g>
</g>
<g>
	<g>
		<path d="M321.188,229.799l-85.087-52.42c-0.031-0.019-0.063-0.038-0.095-0.058c-5.972-3.624-12.028-5.461-18.001-5.461    c-15.31,0-26.424,12.118-26.424,28.814v110.142c0,16.7,11.1,28.82,26.394,28.82c6.008,0,12.096-1.863,18.119-5.557l85.062-52.356    c10.101-6.193,15.893-15.666,15.887-25.993C337.038,245.409,331.24,235.946,321.188,229.799z M224.613,302.359V209.1    l75.724,46.651L224.613,302.359z" fill="black"/>
	</g>
</g>
<g>
	<g>
		<path d="M76.12,116.357c-3.066-3.076-7.329-4.831-11.675-4.831s-8.609,1.755-11.675,4.831c-3.076,3.076-4.841,7.329-4.841,11.685    c0,4.346,1.765,8.599,4.841,11.675c3.066,3.076,7.329,4.841,11.675,4.841s8.608-1.765,11.675-4.841    c3.076-3.076,4.841-7.329,4.841-11.675C80.961,123.687,79.196,119.433,76.12,116.357z" fill="black"/>
	</g>
</g>
<g>
	<g>
		<path d="M140.005,116.357c-3.076-3.076-7.329-4.831-11.675-4.831c-4.356,0-8.609,1.755-11.685,4.831    c-3.076,3.076-4.831,7.34-4.831,11.685c0,4.346,1.755,8.599,4.831,11.675c3.076,3.076,7.329,4.841,11.685,4.841    c4.346,0,8.599-1.765,11.675-4.841c3.076-3.076,4.841-7.329,4.841-11.675C144.847,123.687,143.081,119.433,140.005,116.357z" fill="black"/>
	</g>
</g>
<g>
	<g>
		<path d="M203.82,116.357c-3.076-3.076-7.329-4.831-11.675-4.831c-4.346,0-8.609,1.755-11.685,4.831    c-3.066,3.076-4.831,7.34-4.831,11.685c0,4.346,1.765,8.599,4.831,11.675c3.076,3.076,7.34,4.841,11.685,4.841    s8.599-1.765,11.675-4.841c3.076-3.076,4.841-7.329,4.841-11.675C208.661,123.687,206.896,119.433,203.82,116.357z" fill="black"/>
	</g>
</g>
<g>
	<g>
		<path d="M267.675,116.357c-3.076-3.076-7.329-4.831-11.685-4.831c-4.346,0-8.609,1.755-11.675,4.831    c-3.076,3.076-4.841,7.329-4.841,11.685c0,4.346,1.765,8.599,4.841,11.675s7.329,4.841,11.675,4.841s8.609-1.765,11.685-4.841    c3.067-3.076,4.832-7.329,4.832-11.675C272.507,123.687,270.742,119.433,267.675,116.357z" fill="black"/>
	</g>
</g>
<g>
	<g>
		<path d="M331.551,116.357c-3.076-3.076-7.329-4.831-11.675-4.831s-8.609,1.755-11.685,4.831    c-3.066,3.076-4.831,7.329-4.831,11.685c0,4.346,1.765,8.599,4.831,11.675c3.076,3.076,7.34,4.841,11.685,4.841    s8.599-1.765,11.675-4.841s4.841-7.329,4.841-11.675C336.392,123.687,334.627,119.433,331.551,116.357z" fill="black"/>
	</g>
</g>
<g>
	<g>
		<path d="M395.355,116.357c-3.076-3.076-7.329-4.831-11.685-4.831c-4.346,0-8.6,1.755-11.675,4.831    c-3.077,3.076-4.832,7.329-4.832,11.685c0,4.346,1.756,8.599,4.832,11.675s7.329,4.841,11.675,4.841    c4.355,0,8.609-1.765,11.685-4.841c3.075-3.076,4.84-7.329,4.84-11.675C400.195,123.687,398.43,119.433,395.355,116.357z" fill="black"/>
	</g>
</g>
<g>
	<g>
		<path d="M459.251,116.357c-3.076-3.076-7.329-4.831-11.675-4.831c-4.355,0-8.609,1.755-11.685,4.831    c-3.076,3.076-4.831,7.329-4.831,11.685c0,4.346,1.756,8.599,4.831,11.675c3.076,3.076,7.329,4.841,11.685,4.841    c4.346,0,8.599-1.765,11.675-4.841c3.076-3.076,4.841-7.329,4.841-11.675C464.093,123.687,462.327,119.433,459.251,116.357z" fill="black"/>
	</g>
</g>
<g>
	<g>
		<path d="M76.12,371.788c-3.076-3.076-7.329-4.841-11.675-4.841s-8.599,1.765-11.675,4.841c-3.076,3.076-4.841,7.329-4.841,11.675    c0,4.356,1.765,8.609,4.841,11.685c3.066,3.077,7.329,4.831,11.675,4.831s8.608-1.754,11.675-4.831    c3.076-3.076,4.841-7.328,4.841-11.685C80.961,379.117,79.196,374.863,76.12,371.788z" fill="black"/>
	</g>
</g>
<g>
	<g>
		<path d="M140.005,371.788c-3.076-3.076-7.329-4.841-11.675-4.841c-4.346,0-8.609,1.765-11.685,4.841    c-3.076,3.076-4.831,7.329-4.831,11.675c0,4.356,1.755,8.608,4.831,11.685c3.076,3.077,7.329,4.831,11.685,4.831    c4.346,0,8.599-1.755,11.675-4.831c3.076-3.076,4.841-7.34,4.841-11.685S143.081,374.863,140.005,371.788z" fill="black"/>
	</g>
</g>
<g>
	<g>
		<path d="M203.82,371.788c-3.076-3.076-7.329-4.841-11.675-4.841c-4.346,0-8.609,1.765-11.685,4.841    c-3.066,3.076-4.831,7.329-4.831,11.675c0,4.356,1.765,8.609,4.831,11.685c3.076,3.077,7.329,4.831,11.685,4.831    c4.346,0,8.599-1.755,11.675-4.831c3.076-3.076,4.841-7.328,4.841-11.685C208.661,379.117,206.896,374.863,203.82,371.788z" fill="black"/>
	</g>
</g>
<g>
	<g>
		<path d="M267.675,371.788c-3.076-3.076-7.34-4.841-11.685-4.841s-8.599,1.765-11.675,4.841c-3.076,3.076-4.841,7.329-4.841,11.675    s1.765,8.609,4.841,11.685c3.066,3.077,7.329,4.831,11.675,4.831s8.609-1.754,11.685-4.831c3.067-3.076,4.832-7.328,4.832-11.685    C272.507,379.117,270.742,374.863,267.675,371.788z" fill="black"/>
	</g>
</g>
<g>
	<g>
		<path d="M331.551,371.788c-3.076-3.076-7.329-4.841-11.675-4.841s-8.609,1.765-11.685,4.841    c-3.066,3.076-4.831,7.329-4.831,11.675c0,4.356,1.765,8.609,4.831,11.685c3.076,3.077,7.329,4.831,11.685,4.831    c4.346,0,8.609-1.754,11.675-4.831c3.076-3.076,4.841-7.34,4.841-11.685S334.627,374.863,331.551,371.788z" fill="black"/>
	</g>
</g>
<g>
	<g>
		<path d="M395.355,371.788c-3.076-3.076-7.329-4.841-11.685-4.841c-4.346,0-8.6,1.765-11.675,4.841    c-3.077,3.076-4.832,7.329-4.832,11.675c0,4.356,1.756,8.609,4.832,11.685c3.076,3.077,7.329,4.831,11.675,4.831    c4.355,0,8.609-1.754,11.685-4.831c3.075-3.076,4.84-7.328,4.84-11.685C400.195,379.117,398.43,374.863,395.355,371.788z" fill="black"/>
	</g>
</g>
<g>
	<g>
		<path d="M459.251,371.788c-3.076-3.076-7.329-4.841-11.675-4.841c-4.355,0-8.609,1.765-11.685,4.841    c-3.076,3.076-4.831,7.329-4.831,11.675c0,4.356,1.756,8.609,4.831,11.685c3.076,3.077,7.329,4.831,11.685,4.831    c4.346,0,8.599-1.754,11.675-4.831c3.076-3.076,4.841-7.328,4.841-11.685C464.093,379.117,462.327,374.863,459.251,371.788z" fill="black"/>
	</g>
</g>
</svg>
