<?xml version="1.0" encoding="iso-8859-1"?>
<!-- Generator: Adobe Illustrator 19.0.0, SVG Export Plug-In . SVG Version: 6.00 Build 0)  -->
<svg version="1.1" id="Capa_1" xmlns="http://www.w3.org/2000/svg" xmlns:xlink="http://www.w3.org/1999/xlink" x="0px" y="0px" width="70px" height="auto" viewBox="0 0 612 612" style="enable-background:new 0 0 612 612;" xml:space="preserve">
                           <g>
                               <g>		
                                   <circle cx="319.909" cy="319.909" r="97.364" fill="black"/>
                                   <path d="M0,194.727v278.183c0,55.637,55.636,55.637,55.636,55.637h500.727c0,0,55.637,0,55.637-55.637V194.727
                                       c0-55.636-55.637-55.636-55.637-55.636H445.091l-27.818-55.636H222.545l-27.818,55.636H55.636C55.636,139.09,0,139.09,0,194.727z
                                        M472.909,194.727c15.355,0,27.818,12.463,27.818,27.818s-12.463,27.818-27.818,27.818s-27.818-12.463-27.818-27.818
                                       S457.554,194.727,472.909,194.727z M319.909,194.727c69.128,0,125.182,56.054,125.182,125.183
                                       c0,69.127-56.054,125.182-125.182,125.182c-69.128,0-125.182-56.055-125.182-125.182
                                       C194.727,250.78,250.781,194.727,319.909,194.727z" fill="black"/>
                               </g>
                           </g>
                           </svg>