<?xml version="1.0" encoding="utf-8"?>
<!-- Generator: Adobe Illustrator 21.0.0, SVG Export Plug-In . SVG Version: 6.00 Build 0)  -->
<svg version="1.1" id="Layer_1" xmlns="http://www.w3.org/2000/svg" xmlns:xlink="http://www.w3.org/1999/xlink" x="0px" y="0px"
	 viewBox="0 0 512 467.9" style="enable-background:new 0 0 512 467.9;" xml:space="preserve">
<rect x="-2.4" y="-22.9" style="fill:#0A0A0A;" width="514.4" height="514.4"/>
<g>
	<path style="fill:#FFFFFF;stroke:#FFFFFF;stroke-width:15;stroke-miterlimit:10;" d="M151.1,446.2
		C43.3,411.5-16.2,295.9,18.3,188.2s150.3-167.2,258-132.7c37.5,12,70.4,34.3,95.4,64.7c4.9,6,4.1,14.8-1.9,19.7
		c-6,5-14.8,4.1-19.7-1.9c-21.5-26.2-50.1-45.4-82.4-55.8C174.8,52.3,74.8,103.7,45,196.7c-29.9,93,21.5,192.9,114.6,222.8
		c93,29.9,192.9-21.6,222.8-114.6c1.8-5.6,3.3-11.1,4.5-16.8c1.7-7.5,9.1-12.3,16.7-10.7c7.5,1.7,12.3,9.1,10.7,16.7
		c-1.4,6.4-3.2,12.9-5.2,19.3C374.4,421.2,258.7,480.7,151.1,446.2z"/>
	<path style="fill:#FFFFFF;stroke:#FFFFFF;stroke-width:15;stroke-miterlimit:10;" d="M219.2,311.3c-4.1,0-8-1.5-11.1-4.7
		l-94.5-94.4c-6.1-6.1-6.1-16.2,0-22.3c6.1-6.1,16.2-6.1,22.3,0l83.4,83.4L476.6,15c6.1-6.1,16.2-6.1,22.3,0s6.1,16.2,0,22.3
		L230.4,306.7C227.3,309.8,223.3,311.3,219.2,311.3z"/>
</g>
</svg>
