<?xml version="1.0" encoding="utf-8"?>
<!-- Generator: Adobe Illustrator 21.0.0, SVG Export Plug-In . SVG Version: 6.00 Build 0)  -->
<svg version="1.1" id="Layer_1" xmlns="http://www.w3.org/2000/svg" xmlns:xlink="http://www.w3.org/1999/xlink" x="0px" y="0px"
	 viewBox="0 0 512 512" style="enable-background:new 0 0 512 512;" xml:space="preserve">
<g>
	<path style="fill:#102341;" d="M487.6,280L318.5,106.5c-15-15-33.1-23.9-52.7-23.9v-1.3c0,0-9.1,0-9.9,0c-0.8,0-1.5,0-2.3,0
		c-21.4,0-41.5,9.6-56.5,24.6L24.4,279.4c-31.2,31.2-31.2,82.1,0,113.3l14.4,14.6c15,15.1,35.1,23.4,56.5,23.4s41.4-8.3,56.5-23.3
		L256,303.1l104.3,104.3c15.1,15.1,35.1,23.3,56.5,23.3c21.4,0,41.4-8.3,56.5-23.3l14.4-14.4C518.8,361.8,518.8,311.2,487.6,280z
		 M460,365.3l-14.4,14.4c-7.9,7.9-18.4,11.9-28.8,11.9s-20.9-3.9-28.8-11.9L256,247.8L124.1,379.7c-7.9,7.9-18.4,11.9-28.8,11.9
		c-10.4,0-20.9-3.9-28.8-11.9L52,365.3c-15.9-15.8-15.9-41.8,0-57.6l172.9-172.9c7.9-7.9,18.3-11.7,28.7-11.7c0.8,0,1.5,0,2.3,0.1
		c0.8,0,1.5-0.1,2.3-0.1c10.4,0,20.8,3.8,28.8,11.7L460,307.7C475.8,323.6,475.8,349.5,460,365.3z"/>
</g>
</svg>
