<?xml version="1.0" encoding="utf-8"?>
<!-- Generator: Adobe Illustrator 21.0.0, SVG Export Plug-In . SVG Version: 6.00 Build 0)  -->
<svg version="1.1" id="Layer_1" xmlns="http://www.w3.org/2000/svg" xmlns:xlink="http://www.w3.org/1999/xlink" x="0px" y="0px"
	 viewBox="0 0 512 512" style="enable-background:new 0 0 512 512;" xml:space="preserve">
<g>
	<path style="fill:#102341;" d="M256,0C114.6,0,0,114.6,0,256s114.6,256,256,256s256-114.6,256-256S397.4,0,256,0z M256,472
		c-119.3,0-216-96.7-216-216S136.7,40,256,40s216,96.7,216,216S375.3,472,256,472z"/>
	<path style="fill:#102341;" d="M359.5,241.2c-10.8-10.8-24-17.7-37.8-21.4c-14.6-3.9-29.9-3.7-44.5,0.5
		c-13.2,3.8-25.7,10.5-36.1,20.8c-13.7,13.7-34.4,15.7-50.4,6.5c-3.1-1.8-6.1-3.9-8.7-6.5c-16.3-16.3-16.3-42.8,0-59.1
		c16.4-16.3,42.8-16.3,59.2,0c2.7,2.6,4.7,5.6,6.5,8.7c14.5-4.2,29.8-4.4,44.5-0.5c-3.7-13.8-10.6-26.9-21.4-37.8
		c-32.7-32.6-85.6-32.6-118.3,0c-32.7,32.7-32.7,85.7,0,118.3c10.8,10.8,24,17.7,37.8,21.4c14.6,3.8,29.9,3.6,44.5-0.5
		c13.2-3.8,25.7-10.5,36.1-20.9c13.7-13.7,34.5-15.8,50.5-6.5c3,1.8,6,3.8,8.7,6.5c16.3,16.3,16.3,42.8,0,59.2
		c-16.3,16.3-42.9,16.3-59.2,0c-2.7-2.7-4.7-5.6-6.5-8.7c-14.5,4.2-29.8,4.3-44.4,0.5c3.7,13.8,10.5,26.9,21.4,37.8
		c32.7,32.6,85.6,32.6,118.3,0C392.2,326.8,392.2,273.9,359.5,241.2z"/>
</g>
</svg>
