<?xml version="1.0" encoding="utf-8"?>
<!-- Generator: Adobe Illustrator 21.0.0, SVG Export Plug-In . SVG Version: 6.00 Build 0)  -->
<svg version="1.1" id="Layer_1" xmlns="http://www.w3.org/2000/svg" xmlns:xlink="http://www.w3.org/1999/xlink" x="0px" y="0px"
	 viewBox="0 0 512 512" style="enable-background:new 0 0 512 512;" xml:space="preserve">
<path style="fill:#102341;" d="M362.7,404.7H320c-11.8,0-21.3-9.5-21.3-21.3S308.2,362,320,362h42.7c58.8,0,106.7-47.9,106.7-106.7
	s-47.8-106.7-106.7-106.7H320c-11.8,0-21.3-9.5-21.3-21.3S308.2,106,320,106h42.7C445,106,512,173,512,255.3
	C512,337.7,445,404.7,362.7,404.7z"/>
<path style="fill:#102341;" d="M192,404.7h-42.7C67,404.7,0,337.7,0,255.3C0,173,67,106,149.3,106H192c11.8,0,21.3,9.5,21.3,21.3
	s-9.6,21.3-21.3,21.3h-42.7c-58.8,0-106.7,47.8-106.7,106.7S90.5,362,149.3,362H192c11.8,0,21.3,9.5,21.3,21.3
	S203.8,404.7,192,404.7z"/>
<path style="fill:#102341;" d="M320,276.7H192c-11.8,0-21.3-9.5-21.3-21.3S180.2,234,192,234h128c11.8,0,21.3,9.5,21.3,21.3
	S331.8,276.7,320,276.7z"/>
</svg>
