<?xml version="1.0" encoding="utf-8"?>
<!-- Generator: Adobe Illustrator 21.0.0, SVG Export Plug-In . SVG Version: 6.00 Build 0)  -->
<svg version="1.1" id="Layer_1" xmlns="http://www.w3.org/2000/svg" xmlns:xlink="http://www.w3.org/1999/xlink" x="0px" y="0px"
	 viewBox="0 0 512 512" style="enable-background:new 0 0 512 512;" xml:space="preserve">
<g id="XMLID_235_">
	<path id="XMLID_236_" style="fill:#102341;" d="M81.1,97.4c0,53.7,43.7,97.4,97.4,97.4c53.7,0,97.4-43.7,97.4-97.4S232.1,0,178.4,0
		C124.7,0,81.1,43.7,81.1,97.4z"/>
	<path id="XMLID_237_" style="fill:#102341;" d="M23.3,443h178.4v45.8c0,12.9,10.4,23.3,23.3,23.3h70.3c6.2,0,12.1-2.5,16.5-6.8
		l193.4-193.4c9.1-9.1,9.1-23.8,0-32.9l-70.3-70.3c-4.4-4.4-10.3-6.8-16.5-6.8s-12.1,2.5-16.5,6.8l-91.3,91.3
		c-33.6-37.1-81.2-58.6-132.2-58.6C80,241.3,0,321.3,0,419.7C0,432.5,10.4,443,23.3,443z"/>
</g>
</svg>
