<?xml version="1.0" encoding="utf-8"?>
<!-- Generator: Adobe Illustrator 21.0.0, SVG Export Plug-In . SVG Version: 6.00 Build 0)  -->
<svg version="1.1" id="Layer_1" xmlns="http://www.w3.org/2000/svg" xmlns:xlink="http://www.w3.org/1999/xlink" x="0px" y="0px"
	 viewBox="0 0 512 512" style="enable-background:new 0 0 512 512;" xml:space="preserve">
<g>
	<g>
		<path style="fill:#102341;" d="M84.6,257c-10.6,10.6-10.6,27.9,0,38.7c10.6,10.6,27.9,10.6,38.7,0c73.6-73.6,193.3-73.6,266.9,0
			c5.3,5.3,12.3,8,19.3,8s14-2.7,19.3-8c10.6-10.6,10.6-27.9,0-38.7C333.9,162.1,179.4,162.1,84.6,257z"/>
		<path style="fill:#102341;" d="M158.4,330.8c-10.6,10.6-10.6,27.9,0,38.7c10.6,10.6,27.9,10.6,38.7,0c32.8-32.9,86.4-32.9,119.2,0
			c5.3,5.3,12.3,8,19.3,8s14-2.7,19.3-8c10.6-10.6,10.6-27.9,0-38.6C300.7,276.6,212.6,276.6,158.4,330.8z"/>
		<circle style="fill:#102341;" cx="256.6" cy="429" r="36.4"/>
		<path style="fill:#102341;" d="M503.7,182C367.4,45.9,145.9,45.9,9.6,182C-1,192.6-1,209.9,9.6,220.7c10.6,10.6,27.9,10.6,38.7,0
			c114.9-115,301.9-115,416.8,0c5.3,5.3,12.3,8,19.3,8s14-2.7,19.3-8C514.3,210,514.3,192.7,503.7,182z"/>
	</g>
</g>
</svg>
