<?xml version="1.0" encoding="utf-8"?>
<!-- Generator: Adobe Illustrator 21.0.0, SVG Export Plug-In . SVG Version: 6.00 Build 0)  -->
<svg version="1.1" id="Layer_1" xmlns="http://www.w3.org/2000/svg" xmlns:xlink="http://www.w3.org/1999/xlink" x="0px" y="0px"
	 viewBox="0 0 512 512" style="enable-background:new 0 0 512 512;" xml:space="preserve">
<g>
	<g>
		<path style="fill:#102341;" d="M468.6,113.5L461,116l-40.8,3.6L408.7,138l-8.4-2.7l-32.5-29.3l-4.7-15.2l-6.3-16.2l-20.4-18.3
			l-24.1-4.7l-0.6,11l23.6,23l11.5,13.6l-13,6.8l-10.6-3.1l-15.8-6.6l0.5-12.8L287.3,75l-6.9,30l-20.9,4.7l2.1,16.7l27.3,5.2
			l4.7-26.7l22.5,3.3l10.5,6.1h16.8l11.5,23l30.5,30.9l-2.2,12l-24.6-3.1L316,198.7l-30.6,36.7l-4,16.2h-11l-20.4-9.4l-19.9,9.4
			l4.9,20.9l8.6-10l15.2-0.5l-1.1,18.8l12.6,3.7l12.6,14.1l20.5-5.8l23.4,3.7l27.2,7.3l13.6,1.6l23,26.2l44.5,26.2l-28.8,55
			l-30.4,14.1l-11.5,31.4l-43.9,29.3l-4.7,16.9C428.4,477.5,512,376.6,512,256C512,203.3,496,154.2,468.6,113.5z"/>
		<path style="fill:#102341;" d="M285.4,389.8l-18.6-34.6l17.1-35.7l-17.1-5.1l-19.2-19.3l-42.6-9.6L190.9,256v17.6h-6.2l-36.7-49.7
			V183L121,139.2l-42.7,7.6H49.6l-14.5-9.5l18.5-14.6L35.1,127C12.9,164.9,0,208.9,0,256c0,141.4,114.6,256,256,256
			c10.9,0,21.6-1,32.1-2.2l-2.7-31c0,0,11.8-46.1,11.8-47.6C297.2,429.6,285.4,389.8,285.4,389.8z"/>
		<path style="fill:#102341;" d="M95.1,82.5l45.5-6.3l21-11.5l23.6,6.8l37.7-2.1l12.9-20.3l18.8,3.1l45.7-4.3L312.9,34l17.8-11.9
			l25.1,3.8l9.2-1.4C331.9,9,295,0,256,0C176.5,0,105.5,36.2,58.5,93h0.1L95.1,82.5z M266.8,25.4L292.9,11l16.8,9.7l-24.3,18.5
			l-23.2,2.3l-10.4-6.8L266.8,25.4z M189.4,27.5l11.5,4.8l15.1-4.8l8.2,14.3l-34.9,9.2l-16.8-9.8C172.6,41.1,189,30.6,189.4,27.5z"
			/>
	</g>
</g>
</svg>
