<?xml version="1.0" encoding="utf-8"?>
<!-- Generator: Adobe Illustrator 21.0.0, SVG Export Plug-In . SVG Version: 6.00 Build 0)  -->
<svg version="1.1" id="Layer_1" xmlns="http://www.w3.org/2000/svg" xmlns:xlink="http://www.w3.org/1999/xlink" x="0px" y="0px"
	 viewBox="0 0 512 467.9" style="enable-background:new 0 0 512 467.9;" xml:space="preserve">
<rect x="-2.4" y="-22.9" style="display:none;fill:#0A0A0A;" width="514.4" height="514.4"/>
<g>
	<path style="fill:#FFFFFF;stroke:#FFFFFF;stroke-width:15;stroke-miterlimit:10;" d="M150.2,447.9C41.6,413-18.4,296.4,16.4,187.8
		S167.9,19.2,276.5,54c37.8,12.1,71,34.6,96.2,65.2c4.9,6,4.1,14.9-1.9,19.9c-6,5-14.9,4.1-19.9-1.9c-21.7-26.4-50.5-45.8-83.1-56.3
		C174.1,50.8,73.3,102.6,43.3,196.4C13.2,290.2,65,390.9,158.8,421c93.8,30.1,194.5-21.8,224.6-115.5c1.8-5.6,3.3-11.2,4.5-16.9
		c1.7-7.6,9.2-12.4,16.8-10.8c7.6,1.7,12.4,9.2,10.8,16.8c-1.4,6.5-3.2,13-5.2,19.5C375.4,422.7,258.7,482.7,150.2,447.9z"/>
	<path style="fill:#FFFFFF;stroke:#FFFFFF;stroke-width:15;stroke-miterlimit:10;" d="M218.9,311.9c-4.1,0-8.1-1.5-11.2-4.7
		L112.4,212c-6.2-6.2-6.2-16.3,0-22.5c6.2-6.2,16.3-6.2,22.5,0l84.1,84.1L478.4,13.2c6.2-6.2,16.3-6.2,22.5,0
		c6.2,6.2,6.2,16.3,0,22.5L230.2,307.3C227.1,310.4,223,311.9,218.9,311.9z"/>
</g>
</svg>
